<?xml version="1.0" standalone="no"?>
<!DOCTYPE svg PUBLIC "-//W3C//DTD SVG 1.1//EN" "http://www.w3.org/Graphics/SVG/1.1/DTD/svg11.dtd">
<svg xmlns="http://www.w3.org/2000/svg" xmlns:xlink="http://www.w3.org/1999/xlink" width="812" height="783" viewBox="0 0 812 783">
	<path fill="#C05D5C" transform="matrix(2.26184 0 0 2.26301 0 -3.05176e-05)" d="M170.008 17.5847C174.521 17.2997 179.267 17.225 183.649 18.4751C195.337 21.8092 205.125 29.2418 216.573 33.1024C221.734 34.843 227.062 36.0314 232.449 36.8604C243.365 38.5402 254.932 38.9668 264.366 45.4552C270.685 49.8013 274.772 56.7685 278.284 63.3964C281.566 69.5892 284.582 75.9219 288.478 81.7653C295.917 92.9247 308.494 99.8013 315.849 110.922C317.748 113.794 319.397 116.781 320.31 120.125C321.611 124.892 321.5 129.816 321.024 134.683C320.097 144.166 317.398 153.36 317.026 162.91C316.721 170.75 318.666 178.799 320.127 186.452C321.192 192.027 322.083 198.639 321.201 204.246C319.323 216.195 310.081 224.269 301.639 232.033C297.882 235.488 293.723 239.182 290.635 243.278C283.502 252.74 279.606 264.016 272.899 273.717C269.506 278.624 264.776 282.942 259.275 285.341C246.493 290.916 232.034 289.874 218.852 293.978C207.806 297.417 198.341 304.413 187.464 308.178C184.806 309.098 182.068 309.677 179.307 310.185L178.754 310.291C174.147 311.072 168.773 310.433 164.304 309.16C154.918 306.485 146.622 300.993 137.819 296.916C134.342 295.305 130.653 294.011 126.961 292.996C122.761 291.841 118.507 291.452 114.212 290.878L101.845 288.88C95.9372 287.83 89.663 286.161 84.717 282.597C72.4617 273.767 68.8147 258.633 60.7105 246.625C53.0779 235.316 40.7018 228.34 32.8996 217.189C21.7486 201.252 31.2113 182.854 31.5316 165.479C31.701 156.291 29.3964 147.739 28.0534 138.75C27.1017 132.38 26.7563 124.639 28.8814 118.467C31.2971 111.452 37.0903 104.93 42.4513 99.9533C45.6012 97.0292 49.2155 94.4914 52.2058 91.375C54.6114 88.868 56.5511 85.6884 58.5807 82.8727C59.646 81.3948 60.4044 79.7569 61.4322 78.2624C62.8981 76.1308 64.7774 74.0563 66.0354 71.8182C69.7371 65.2326 72.6774 58.385 77.3071 52.338C81.0394 47.4633 85.8529 44.0677 91.5044 41.7584C103.59 36.8201 117.363 37.8802 129.794 33.9921C143.592 29.6765 155.445 19.4609 170.008 17.5847Z"/>
	<path fill="#FBFBFC" transform="matrix(2.26184 0 0 2.26301 0 -3.05176e-05)" d="M173.922 34.3471C177.415 34.475 180.718 34.9235 184.072 35.9437C195.028 39.2768 204.308 46.4181 215.425 49.5155C227.698 52.9352 242.605 51.2395 253.278 59.2648C263.37 66.854 266.733 80.3154 273.655 90.3957C280.329 100.115 290.954 106.214 297.648 115.948C307.461 130.218 298.707 146.759 298.695 162.312C298.688 170.71 300.983 179.051 302.115 187.338C302.931 193.31 302.338 199.983 299.474 205.375C293.591 216.452 281.328 223.05 274.053 233.168C268.334 241.122 265.316 250.779 259.387 258.615C256.148 262.897 252.396 266.029 247.411 268.121C236.509 272.696 224.303 271.727 213.125 275.237C207.372 277.043 201.852 279.994 196.507 282.761C191.712 285.243 185.87 288.341 180.43 289.047L180.125 289.085C178.432 289.314 176.728 289.22 175.024 289.185C171.769 289.262 168.509 289.115 165.339 288.299C154.997 285.635 146.229 278.524 136.015 275.312C122.303 271.001 105.494 273.536 93.9835 263.63C84.7917 255.72 81.5852 242.95 74.7404 233.225C68.2585 224.016 58.1994 218.113 51.6723 208.945C40.871 193.772 50.6081 177.316 50.2389 160.875C50.0363 151.851 47.1375 143.008 46.5314 133.991C45.0806 112.406 64.6754 105.443 75.2337 90.2749C81.1768 81.7371 84.1727 71.2493 91.1198 63.378C94.2187 59.8669 98.0031 57.2349 102.387 55.5627C112.979 51.5231 124.652 52.2591 135.378 48.9565C148.708 44.8525 159.572 35.2378 173.922 34.3471Z"/>
	<path fill="#C05D5C" transform="matrix(2.26184 0 0 2.26301 0 -3.05176e-05)" d="M173.885 38.8571C176.734 38.6695 179.82 39.3026 182.559 40.0503C192.049 42.6408 199.933 48.5888 209.094 51.8773C215.925 54.3295 222.976 55.1397 230.116 56.1764C234.007 56.7412 238.124 57.2826 241.87 58.4765C245.383 59.5961 248.682 61.2803 251.508 63.659C260.693 71.3895 263.638 83.4101 270.29 92.9922C276.556 102.019 286.385 107.809 292.785 116.697C294.503 119.082 295.999 121.701 296.817 124.538C300.367 136.842 294.118 150.167 294.309 162.631C294.438 171.023 296.909 179.18 297.613 187.539C298.086 193.146 297.74 198.788 295.061 203.847C289.561 214.236 278.372 220.536 271.308 229.8C264.845 238.276 261.974 248.947 255.012 257.086C251.968 260.645 248.136 263.245 243.781 264.929C237.176 267.483 229.917 267.984 222.962 268.973C218.857 269.557 214.59 270.476 210.623 271.684C207.205 272.724 203.941 274.445 200.765 276.058C194.999 278.987 188.975 282.423 182.714 284.124C180.209 284.805 177.661 285.073 175.08 285.267C161.169 285.433 150.982 275.741 138.394 271.723C132.119 269.721 125.529 268.942 119.036 268.009C111.321 266.901 103.214 265.667 97.0934 260.377C87.9527 252.478 85.1379 240.422 78.2859 230.88C71.9484 222.054 62.4789 216.242 56.0621 207.536C53.8626 204.552 52.0653 200.943 51.3521 197.292C49.0438 185.475 54.6534 173.578 54.4454 161.706C54.2925 152.977 51.6028 144.629 51.0111 135.976C50.6238 130.31 51.1022 124.974 53.9186 119.911C59.6143 109.671 70.6054 103.436 77.6344 94.1727C84.0372 85.7342 86.8306 74.9674 93.8643 66.9732C96.974 63.4389 100.617 60.863 105.038 59.1914C115.152 55.3679 126.554 55.8551 136.929 52.8027C145.281 50.3456 152.479 45.2796 160.477 41.9825C164.777 40.2096 169.252 39.1638 173.885 38.8571Z"/>
	<path fill="#FAE4E4" transform="matrix(2.26184 0 0 2.26301 0 -3.05176e-05)" d="M166.123 223.875C166.816 223.797 167.09 223.64 167.683 224.038C167.787 224.741 167.642 225.309 167.487 225.99L166.875 226.256C166.269 226.053 165.816 225.738 165.295 225.375C165.034 224.8 164.91 224.752 165.125 224.134L166.123 223.875Z"/>
	<path fill="#FAE4E4" transform="matrix(2.26184 0 0 2.26301 0 -3.05176e-05)" d="M150.094 114.22L154.378 113.876C155.151 113.782 155.866 113.501 156.648 113.625C156.952 114.225 156.958 114.307 156.875 114.977C156.206 115.412 151.443 115.422 150.532 115.198L150.268 115.087L150.094 114.22Z"/>
	<path fill="#FAE4E4" transform="matrix(2.26184 0 0 2.26301 0 -3.05176e-05)" d="M126.454 96.1179L132.625 96.3074L132.991 96.75C132.853 97.1363 132.874 97.3283 132.457 97.4804C130.957 98.0275 128.12 97.7128 126.481 97.6996L126.454 96.1179Z"/>
	<path fill="#F8EEF2" transform="matrix(2.26184 0 0 2.26301 0 -3.05176e-05)" d="M126.524 113.756L126.793 113.867C127.329 114.069 128.049 113.944 128.622 113.918C130.308 113.842 132.348 113.505 134 113.745C134.239 114.262 134.223 114.31 134.122 114.875C132.79 115.685 124.54 115.197 122.566 115.166L122.705 114.95L127.461 114.878L127.302 114.533C126.99 114.401 126.852 114.303 126.677 114.017L126.524 113.756Z"/>
	<path fill="#FAE4E4" transform="matrix(2.26184 0 0 2.26301 0 -3.05176e-05)" d="M144.945 138.967C146.007 138.762 147.121 138.831 148.199 138.833C148.116 136.645 147.882 134.312 148.125 132.139C148.747 131.74 148.805 131.855 149.5 131.997C150.474 133.263 149.554 136.785 150.139 138.416L150.261 138.734C149.797 138.919 149.191 139.286 148.722 139.145C147.579 138.8 146.143 139.164 144.945 138.967Z"/>
	<path fill="#F8EEF2" transform="matrix(2.26184 0 0 2.26301 0 -3.05176e-05)" d="M150.261 138.734C150.963 138.811 151.401 138.741 151.934 139.25C151.499 139.92 150.948 139.937 150.215 140.165C149.471 140.053 148.778 140.037 148.05 140.258C145.325 140.256 142.072 139.91 139.418 140.422L139.272 140.395C139.408 139.885 139.329 139.408 139.276 138.893L144.945 138.967C146.143 139.164 147.579 138.8 148.722 139.145C149.191 139.286 149.797 138.919 150.261 138.734Z"/>
	<path fill="#F8EEF2" transform="matrix(2.26184 0 0 2.26301 0 -3.05176e-05)" d="M187.564 89.3276C190.516 89.033 195.575 89.3096 197.875 91.4619C198.129 91.6998 198.326 91.9563 198.51 92.25L198.439 92.9574L198 93.2324C195.827 92.5798 194.283 91.0808 191.856 90.8313C190.527 90.5667 189.131 90.5547 187.779 90.4793C187.894 89.9463 187.773 89.8183 187.564 89.3276Z"/>
	<path fill="#F8EEF2" transform="matrix(2.26184 0 0 2.26301 0 -3.05176e-05)" d="M187.64 114.259C189.686 114.209 191.816 114.192 193.778 113.536C195.134 113.083 197.517 110.949 198.73 111.125C198.808 111.705 198.841 112.007 198.476 112.5C196.729 114.861 192.337 115.518 189.623 115.685C188.911 115.728 187.689 115.725 187.036 115.427C187.434 115.062 187.471 114.766 187.64 114.259Z"/>
	<path fill="#FBFBFC" transform="matrix(2.26184 0 0 2.26301 0 -3.05176e-05)" d="M167.985 82.0311L172.947 82.2688L169.187 86.55C168.362 87.5121 166.917 87.5976 165.739 87.8293C166.144 85.7893 167.063 83.8789 167.985 82.0311Z"/>
	<path fill="#F8EEF2" transform="matrix(2.26184 0 0 2.26301 0 -3.05176e-05)" d="M221.602 103.974L221.629 104.154C221.755 105.216 221.285 106.034 220.801 106.946C220.122 108.225 219.876 109.969 218.574 110.763C218.341 111.556 218.655 111.722 218.593 112.375C218.517 113.171 217.529 114.005 217.627 114.875C217.889 114.65 218.446 114.299 218.541 113.983C218.714 113.411 218.938 113.043 219.268 112.547C219.39 112.364 219.442 112.21 219.501 112.001L220.126 111.438C220.146 110.763 220.074 110.002 220.527 109.457C220.85 109.067 221.047 108.249 221.189 107.75L221.251 107.251C221.783 106.714 221.466 106.259 222.187 105.661L222.396 105.803L220.728 110.435L228.802 110.405C229.101 110.954 229.242 111.555 229.534 112.085C227.157 111.925 224.712 112.028 222.327 112.018C221.885 112.016 220.514 111.859 220.155 112.009C220.135 112.017 219.814 112.658 219.789 112.704C219.265 113.686 218.636 115.182 217.5 115.553C216.465 114.471 218.02 113.143 217.947 111.875C217.387 111.567 217.139 111.302 216.82 110.75L217.125 110.262L218.625 110.143C219.939 108.54 220.672 105.875 221.602 103.974Z"/>
	<defs>
		<linearGradient id="gradient_0" gradientUnits="userSpaceOnUse" x1="151.89598" y1="150.01228" x2="145.7173" y2="147.58585">
			<stop offset="0" stop-color="#F2D1D8"/>
			<stop offset="1" stop-color="#E1DDDC"/>
		</linearGradient>
	</defs>
	<path fill="url(#gradient_0)" transform="matrix(2.26184 0 0 2.26301 0 -3.05176e-05)" d="M148.05 140.258C148.778 140.037 149.471 140.053 150.215 140.165L150.084 140.377C149.642 141.164 149.879 143.078 149.886 144.013L149.892 155.025C149.872 155.57 149.925 157.26 149.691 157.625C149.57 157.812 149.314 157.862 149.125 157.981L148.36 157.875C147.471 156.315 148.125 143.138 148.05 140.258Z"/>
	<defs>
		<linearGradient id="gradient_1" gradientUnits="userSpaceOnUse" x1="208.50975" y1="141.98833" x2="196.71506" y2="145.93642">
			<stop offset="0" stop-color="#F6D0D1"/>
			<stop offset="1" stop-color="#F0FDF6"/>
		</linearGradient>
	</defs>
	<path fill="url(#gradient_1)" transform="matrix(2.26184 0 0 2.26301 0 -3.05176e-05)" d="M200.037 155.142C202.436 153.141 203.702 150.813 203.988 147.679C204.339 143.828 204.169 139.855 204.174 135.985C204.176 135.111 203.95 133.141 204.229 132.375C204.306 132.162 204.493 132.007 204.625 131.823L205.751 131.953C206.316 132.889 206.032 135.029 206.042 136.156C206.079 140.417 206.528 145.195 205.554 149.349C204.919 152.062 203.103 154.643 200.821 156.214L200.136 155.883L200.037 155.142Z"/>
	<path fill="#FBFBFC" transform="matrix(2.26184 0 0 2.26301 0 -3.05176e-05)" d="M209.031 218.045L209.175 218.037C211.633 217.932 213.437 218.412 215.821 218.826C216.803 218.996 218.107 219.032 218.957 219.541L219.021 220C218.438 220.829 217.498 221.039 216.582 221.372C216.149 221.934 216.104 229.739 215.976 231.033C215.829 232.528 215.54 233.999 215.151 235.449C214.722 237.049 213.503 239.177 211.989 239.966C210.951 240.507 209.257 240.421 208.158 240.086C207.043 239.746 205.917 238.54 205.399 237.509C204.407 235.532 204.647 232.931 204.875 230.786L205.305 230.125L206.375 229.997C206.542 230.08 206.782 230.085 206.875 230.246C206.984 230.434 206.878 231.474 206.866 231.726C206.794 233.294 206.515 235.806 207.555 237.081C208.278 237.966 209.266 238.339 210.375 238.421C210.907 238.148 211.359 237.871 211.744 237.41C212.821 236.119 213.075 234.631 213.344 233.02C214.021 228.965 213.98 224.482 213.68 220.388C212.404 220.147 210.921 219.81 209.644 220.206C208.309 220.622 208.344 222.526 207.754 223.625C207.154 223.771 207.115 223.681 206.581 223.418C206.15 222.593 206.084 222.053 206.274 221.125C206.591 219.57 207.796 218.835 209.031 218.045Z"/>
	<path fill="#FBFBFC" transform="matrix(2.26184 0 0 2.26301 0 -3.05176e-05)" d="M169.737 183.037C171.434 182.955 172.685 183.226 174.295 183.733C175.114 183.417 175.893 183.134 176.775 183.057C178.13 182.94 179.7 183.419 180.694 184.339C181.513 185.096 181.839 186.173 181.829 187.256C181.802 190.391 179.414 191.992 177.34 194.02L174.39 196.757C173.383 196.235 172.422 195.116 171.608 194.316C170.267 192.997 168.474 191.484 167.47 189.897C166.783 188.812 166.53 187.45 166.83 186.189C167.179 184.723 168.508 183.736 169.737 183.037Z"/>
	<path fill="#C05D5C" transform="matrix(2.26184 0 0 2.26301 0 -3.05176e-05)" d="M170.597 184.875L170.762 184.829C172.102 184.613 173.599 185.901 174.583 186.659C175.245 185.902 175.782 185.211 176.75 184.848C177.67 184.904 178.62 184.947 179.318 185.625C179.78 186.075 180.015 186.618 180.014 187.265C180.011 188.941 178.006 190.614 176.923 191.767L174.39 194.288C172.708 192.714 169.934 190.658 168.883 188.624C168.404 187.698 168.509 187.094 168.803 186.125C169.355 185.421 169.751 185.158 170.597 184.875Z"/>
	<path fill="#FBFBFC" transform="matrix(2.26184 0 0 2.26301 0 -3.05176e-05)" d="M192.02 157.943C189.811 157.342 187.772 156.88 186.102 155.214C184.819 153.933 183.718 152.213 183.182 150.476C182.508 148.293 182.615 145.763 182.583 143.499L182.593 131.843L191.935 131.87C192.272 133.776 192.001 136.182 191.999 138.136L191.99 152.057C191.992 153.258 191.751 155.309 192.15 156.413L192.274 156.728C195.241 156.724 197.408 156.604 200.037 155.142L200.136 155.883L200.821 156.214C198.162 157.939 195.129 158.415 192.02 157.943Z"/>
	<path fill="#FBFBFC" transform="matrix(2.26184 0 0 2.26301 0 -3.05176e-05)" d="M218.467 131.803L220.734 131.677C222.787 131.711 225.578 132.025 227.03 133.673C227.44 134.138 227.443 134.218 227.375 134.819C226.537 135.077 225.352 134.274 224.51 133.928C222.696 133.185 220.677 132.696 218.781 133.375C218.098 134.137 218.101 134.223 218.013 135.25C218.755 137.621 222.449 139.816 224.262 141.436C226.694 143.608 229.395 146.151 229.551 149.625C229.644 151.694 228.926 153.618 227.501 155.128C225.275 157.489 222.293 157.958 219.217 158.069L218.381 158.029C216.431 157.896 212.677 157.089 211.456 155.427C211.142 154.998 211.291 154.573 211.341 154.084C211.519 154.033 211.691 153.914 211.875 153.932C212.706 154.01 214.606 155.434 215.444 155.832C216.768 156.46 218.245 156.677 219.699 156.727C221.35 156.783 222.704 156.256 223.886 155.137C223.961 154.869 224.173 154.385 224.17 154.125C224.163 153.649 223.659 152.696 223.402 152.31C222.651 151.18 221.472 150.341 220.43 149.501C218.379 147.846 216.113 146.235 214.338 144.285C213.169 143.001 212.507 141.765 212.121 140.078C211.746 138.437 211.828 136.597 212.775 135.161C214.108 133.137 216.192 132.29 218.467 131.803Z"/>
	<path fill="#FBFBFC" transform="matrix(2.26184 0 0 2.26301 0 -3.05176e-05)" d="M251.721 89.3434L251.82 89.3199C254.04 89.0309 257.392 89.4287 259.25 90.7506C259.799 91.141 259.913 91.4795 260.034 92.125L259.75 92.498C256.98 91.7749 255.337 90.4137 252.25 90.7126C251.326 90.802 251.08 91.0847 250.519 91.75C250.508 92.2705 250.424 92.6661 250.677 93.1351C251.356 94.3903 252.817 95.4901 253.889 96.4141C255.981 98.2179 258.234 99.9641 259.956 102.139C261.193 103.702 262.399 106.035 262.149 108.086C261.894 110.177 260.741 112.219 259.08 113.504C256.472 115.521 253.44 115.882 250.265 115.505C248.673 115.122 246.962 114.773 245.5 114.006C244.74 113.607 244.053 113.066 243.824 112.203C243.705 111.757 243.808 111.758 244.011 111.375C245.046 111.463 245.934 112.225 246.82 112.727C248.691 113.788 250.593 114.279 252.75 114.226C254.367 114.186 255.455 113.694 256.555 112.505C256.812 111.732 256.824 111.259 256.476 110.511C255.854 109.174 254.47 108.2 253.354 107.301C251.366 105.701 249.266 104.149 247.48 102.322C246.006 100.814 244.728 98.9671 244.394 96.8444C244.161 95.3687 244.572 93.5602 245.502 92.375C247.175 90.2427 249.143 89.6508 251.721 89.3434Z"/>
	<path fill="#FBFBFC" transform="matrix(2.26184 0 0 2.26301 0 -3.05176e-05)" d="M187.036 115.427C185.126 114.991 183.252 114.489 181.584 113.421C178.734 111.596 176.473 108.471 175.821 105.125C175.181 101.837 175.723 98.0684 177.595 95.2525C180.019 91.6047 183.414 90.1502 187.564 89.3276C187.773 89.8183 187.894 89.9463 187.779 90.4793C186.961 92.3431 187.211 110.721 187.511 113.699L187.64 114.259C187.471 114.766 187.434 115.062 187.036 115.427Z"/>
	<path fill="#FBFBFC" transform="matrix(2.26184 0 0 2.26301 0 -3.05176e-05)" d="M161.02 89.4678L170.205 89.4845L170.262 115.16L160.993 115.203L161.02 89.4678Z"/>
	<path fill="#FBFBFC" transform="matrix(2.26184 0 0 2.26301 0 -3.05176e-05)" d="M150.268 115.087L143.176 115.178C142.432 115.191 141.153 115.372 140.494 115.092L140.494 89.4964L149.822 89.4946L149.785 106.454L149.804 111.353C149.813 112.135 149.714 113.164 149.975 113.907L150.094 114.22L150.268 115.087Z"/>
	<path fill="#FBFBFC" transform="matrix(2.26184 0 0 2.26301 0 -3.05176e-05)" d="M203.458 89.4703L212.849 89.4946L212.794 115.223L203.502 115.229L203.458 89.4703Z"/>
	<path fill="#FBFBFC" transform="matrix(2.26184 0 0 2.26301 0 -3.05176e-05)" d="M139.211 157.48C138.23 158.123 131.365 157.72 129.742 157.714L129.759 131.944L139.218 131.937L139.276 138.893C139.329 139.408 139.408 139.885 139.272 140.395L139.211 157.48Z"/>
	<path fill="#FBFBFC" transform="matrix(2.26184 0 0 2.26301 0 -3.05176e-05)" d="M122.566 115.166L117.28 115.216C117.038 114.541 117.161 113.529 117.159 112.807L117.148 108.069L117.023 89.4652L129.237 89.4869C130.563 89.4915 132.868 89.2064 134.067 89.6777C134.319 90.2968 134.276 90.3504 134.125 90.9688C131.767 91.3301 128.935 90.9723 126.529 90.92L126.454 96.1179L126.481 97.6996L126.524 113.756L126.677 114.017C126.852 114.303 126.99 114.401 127.302 114.533L127.461 114.878L122.705 114.95L122.566 115.166Z"/>
	<path fill="#FBFBFC" transform="matrix(2.26184 0 0 2.26301 0 -3.05176e-05)" d="M221.602 103.974C222.205 101.921 223.189 99.9755 224.01 98.0014L228.157 88.1686L240.507 115.219L230.897 115.229C230.485 114.203 230.123 113.014 229.534 112.085C229.242 111.555 229.101 110.954 228.802 110.405L220.728 110.435L222.396 105.803L222.187 105.661C221.466 106.259 221.783 106.714 221.251 107.251L221.189 107.75C221.047 108.249 220.85 109.067 220.527 109.457C220.074 110.002 220.146 110.763 220.126 111.438L219.501 112.001C219.442 112.21 219.39 112.364 219.268 112.547C218.938 113.043 218.714 113.411 218.541 113.983C218.446 114.299 217.889 114.65 217.627 114.875C217.529 114.005 218.517 113.171 218.593 112.375C218.655 111.722 218.341 111.556 218.574 110.763C219.876 109.969 220.122 108.225 220.801 106.946C221.285 106.034 221.755 105.216 221.629 104.154L221.602 103.974Z"/>
	<path fill="#C05D5C" transform="matrix(2.26184 0 0 2.26301 0 -3.05176e-05)" d="M222.396 105.803L224.297 100.729L228.802 110.405L220.728 110.435L222.396 105.803Z"/>
	<path fill="#FBFBFC" transform="matrix(2.26184 0 0 2.26301 0 -3.05176e-05)" d="M157.703 154.513L157.621 154.758C157.22 155.942 156.671 157.365 155.5 157.955L155.059 157.734C154.899 156.465 155.899 155.408 155.603 154.375L154.687 153.798L154.625 153.251C155.419 152.69 155.592 153.05 156.375 152.787C156.39 152.782 156.613 152.505 156.615 152.503C157.951 150.781 158.553 148.42 159.411 146.433C161.616 141.321 164.163 136.056 165.697 130.707L178.511 157.72L168.732 157.701C168.136 156.758 167.915 155.571 167.431 154.554L167.401 154.49L157.703 154.513Z"/>
	<path fill="#C05D5C" transform="matrix(2.26184 0 0 2.26301 0 -3.05176e-05)" d="M159.155 151.062L161.306 145.618C161.608 144.924 161.906 144.026 162.432 143.473C163.387 146.7 165.937 149.783 166.536 153.006C166.375 153.614 166.337 153.588 166.635 154.135L167.401 154.49L157.703 154.513C157.796 154.111 157.905 153.967 158.125 153.627C158.002 152.626 158.383 151.957 158.764 151.051L159.155 151.062Z"/>
	<path fill="#FAE4E4" transform="matrix(2.26184 0 0 2.26301 0 -3.05176e-05)" d="M157.703 154.513C157.796 154.111 157.905 153.967 158.125 153.627C158.002 152.626 158.383 151.957 158.764 151.051L159.155 151.062L158.499 152.96L166.536 153.006C166.375 153.614 166.337 153.588 166.635 154.135L167.401 154.49L157.703 154.513Z"/>
	<path fill="#FBFBFC" transform="matrix(2.26184 0 0 2.26301 0 -3.05176e-05)" d="M251.408 238.919L251.055 239.075L250.862 239.15C249.945 239.512 249.177 239.606 248.197 239.522C246.608 239.386 245.906 238.315 244.937 237.176L242.896 239.468C242.175 240.18 241.856 240.219 240.875 240.219C237.887 238.819 238.782 235.199 239.017 232.497C239.105 231.475 239.302 230.564 238.625 229.739L237.625 229.781C234.453 231.539 234.074 234.09 233.855 237.45C233.795 238.374 233.851 239.29 233.414 240.125C232.648 240.228 232.598 240.127 231.955 239.755L231.782 238.625L231.375 238.474L228.625 240.443L228.317 240.36C227.047 239.957 226.432 238.683 225.892 237.583C225.054 238.495 223.965 239.494 222.843 240.035C222.093 240.397 220.962 240.36 220.206 240.02C219.417 239.665 218.526 238.717 218.305 237.875C217.727 235.678 218.596 232.643 218.64 230.341C218.659 229.378 218.126 227.837 218.574 227.085L219.346 227.144C222.749 228.924 218.919 235.116 220.576 237.921C221.287 238.187 221.496 238.267 222.25 238.057C226.731 236.808 225.034 230.602 226.743 227.625C227.357 227.526 227.385 227.528 227.938 227.809C228.645 229.586 227.746 232.871 227.791 234.875C227.822 236.212 228.2 237.609 228.469 238.913C230.319 236.7 231.765 234.224 232.146 231.322C232.294 230.194 232.275 228.896 232.806 227.875L233.375 227.728L233.94 228.125L234.13 229.345L234.529 229.625C235.32 228.975 236.294 228.28 237.299 228.013C238.22 227.767 239.255 227.737 240.094 228.258C242.974 230.045 240.48 234.98 241.186 237.875L241.625 238.11C242.915 237.46 243.508 235.842 244.026 234.58C244.853 232.564 245.492 230.523 247.106 228.974C248.096 228.025 249.192 227.483 250.588 227.528C252.634 227.595 253.733 228.329 255.1 229.79C255.056 232.908 255.062 235.994 254.496 239.072C254.777 238.765 255.016 238.478 255.232 238.122C255.691 237.364 256.252 236.668 256.649 235.875C257.123 234.932 257.503 233.698 258.133 232.866C258.544 232.323 258.564 232.34 259.25 232.24L259.685 232.75C259.374 235.595 257.069 239.105 254.932 240.968C254.559 241.293 254.453 242.081 254.308 242.559C253.794 244.256 253.526 246.135 252.063 247.316C251.304 247.93 250.439 248.121 249.482 247.977C248.648 247.852 248.011 247.324 247.554 246.636C247.183 246.077 246.916 245.241 247.092 244.57C247.612 242.589 249.714 241.562 251.257 240.488C252.307 239.756 252.393 239.389 252.608 238.203L251.408 238.919Z"/>
	<path fill="#FAE4E4" transform="matrix(2.26184 0 0 2.26301 0 -3.05176e-05)" d="M251.791 236.259C252.092 236.863 252.394 237.421 252.504 238.096L252.608 238.203L251.408 238.919C251.185 238.311 251.071 237.851 250.513 237.483L251.791 236.259Z"/>
	<path fill="#C05D5C" transform="matrix(2.26184 0 0 2.26301 0 -3.05176e-05)" d="M250.513 237.483C249.375 237.791 248.396 237.604 247.375 237.042C246.886 236.306 246.638 235.603 246.618 234.71C246.586 233.246 247.018 231.829 248.085 230.791C248.846 230.05 250.168 229.391 251.25 229.537C252.133 229.657 252.307 229.938 252.747 230.625C252.824 232.741 252.604 234.299 251.791 236.259L250.513 237.483Z"/>
	<path fill="#FBFBFC" transform="matrix(2.26184 0 0 2.26301 0 -3.05176e-05)" d="M96.5388 237.703C96.1507 240.764 96.2176 244.95 94.9607 247.735L94.5 248.047C94.2637 247.974 93.9236 247.956 93.7991 247.732C93.5067 247.205 93.5075 246.747 93.5157 246.162C93.5625 242.823 94.1043 239.489 94.2337 236.145C94.341 233.372 94.008 230.58 94.125 227.833L94.5 227.516C95.3446 227.626 95.3703 227.625 95.9453 228.25L96.125 229.68L96.5059 229.836C98.0144 228.774 99.8319 227.264 101.823 227.646C102.902 227.853 103.758 228.513 104.333 229.428C105.333 231.018 104.946 233.145 104.519 234.877C104.337 235.614 104.023 236.337 103.732 237.037C104.487 236.377 105.434 235.623 105.972 234.767C107.877 231.736 108.197 227.097 113 227.445C114.166 227.529 115.454 227.989 116.23 228.89L116.701 229.503L116.851 229.707C117.867 231.23 117.534 234.362 117.518 236.148C119.678 232.749 121.031 229.649 121.716 225.641C122.46 226.417 123.464 227.661 124.526 227.939C125.216 228.12 127.891 227.813 127.791 228.782C127.737 229.296 127.229 229.981 126.978 230.433C125.806 232.539 124.677 234.783 125.3 237.25C125.891 237.855 126.053 237.914 126.875 238.139C127.974 237.893 128.422 237.498 129.011 236.557C129.932 235.088 130.544 233.476 131.647 232.125L132.125 232.05C132.561 233.298 131.923 234.906 131.363 236.05C130.651 237.505 129.367 239.53 127.776 240.123C127.11 240.371 126.206 240.552 125.539 240.221C124.455 239.684 123.325 238.372 123.01 237.202C122.418 235.01 123.636 232.381 124.672 230.5C124.586 230.06 124.643 229.99 124.274 229.745C123.868 229.475 123.467 229.362 123 229.242C122.699 229.367 122.501 229.349 122.373 229.663C121.968 230.653 121.822 231.662 121.487 232.665C120.487 235.657 118.737 236.445 116.247 237.952C115.225 238.57 114.256 239.393 113.159 239.868C112.329 240.227 111.109 240.46 110.242 240.144C109.75 239.965 109.33 239.647 108.913 239.339C107.94 238.618 107.525 237.964 106.999 236.875L106.625 236.639L106.409 236.841C104.873 238.256 103.27 238.5 101.447 239.331C100.591 239.722 99.6436 240.388 98.6844 240.325C98.1674 240.291 97.9502 240.039 97.5489 239.74C97.3314 239.095 97.2211 238.641 97.2605 237.959L96.5388 237.703Z"/>
	<path fill="#C05D5C" transform="matrix(2.26184 0 0 2.26301 0 -3.05176e-05)" d="M113.717 229.625L113.88 229.643C114.127 229.701 114.575 229.84 114.725 230.042C115.756 231.43 115.395 233.641 115.125 235.234L114.435 235.375C113.87 235.118 113.147 234.423 112.797 233.9C112.358 233.243 112.412 232.007 112.541 231.25C112.696 230.333 113.006 230.127 113.717 229.625Z"/>
	<path fill="#C05D5C" transform="matrix(2.26184 0 0 2.26301 0 -3.05176e-05)" d="M110.094 230.375C110.237 230.458 110.432 230.486 110.522 230.625C110.6 230.744 110.597 231.68 110.615 231.906C110.711 233.066 110.826 234.095 111.399 235.134C111.874 235.994 112.802 236.717 113.519 237.375L113.375 237.805L112.625 238C111.705 238.035 111.012 237.958 110.125 237.739C109.702 237.38 109.411 237.251 109.271 236.697C108.739 234.591 108.984 232.254 110.094 230.375Z"/>
	<path fill="#C05D5C" transform="matrix(2.26184 0 0 2.26301 0 -3.05176e-05)" d="M96.5388 237.703C96.4772 235.117 96.4096 232.874 98.3639 230.878C98.9647 230.264 99.9901 229.607 100.875 229.577C101.695 229.549 101.993 229.865 102.548 230.375C103.095 231.681 102.743 233.423 102.215 234.683C101.786 235.71 101.201 236.58 100.481 237.422L97.2605 237.959L96.5388 237.703Z"/>
	<path fill="#FBFBFC" transform="matrix(2.26184 0 0 2.26301 0 -3.05176e-05)" d="M146.157 218.055C146.785 218.058 147.388 218.127 147.999 218.275C149.245 218.575 150.241 219.435 150.868 220.544C151.346 221.388 151.397 222.383 151.089 223.295C150.852 223.998 150.778 224.325 150.125 224.673C149.052 223.622 149.521 222.168 148.641 221.064C148.213 220.526 147.555 220.252 146.886 220.189C145.626 220.068 144.824 220.255 143.84 221.086C143.426 221.963 143.177 222.825 143.272 223.804C143.618 227.368 146.877 226.441 148.875 228.023C148.224 229.228 145.031 229.418 143.747 230.251C142.875 230.816 142.123 231.625 141.894 232.662C141.621 233.892 141.635 235.418 142.367 236.493C142.952 237.353 143.863 237.992 144.889 238.184C146.581 238.5 148.445 238.236 149.844 237.197C153.14 234.749 154.396 229.606 155.011 225.762L157.011 227.236C158.641 228.456 159.964 227.469 161.348 228.239C161.029 230.49 159.133 232.432 158.755 234.824C158.604 235.778 158.525 237.013 159.125 237.81C159.401 237.966 159.589 238.064 159.914 238.053C160.255 238.042 160.808 238.032 161.125 237.931C162.628 237.451 164.237 233.328 164.509 231.842C164.723 230.677 164.677 228.737 165.503 227.875L166.57 227.875C167.067 228.588 166.769 229.444 166.688 230.297C166.506 232.227 165.99 234.682 166.422 236.584C166.623 237.471 166.754 237.763 167.5 238.208C170.469 237.639 171.046 231.092 173.141 228.907C174.025 227.984 175.07 227.426 176.371 227.403C177.366 227.386 178.437 227.692 179.141 228.428C179.715 229.027 180.057 229.787 179.999 230.625C179.959 231.208 179.791 231.571 179.375 231.967C177.991 231.523 178.069 229.742 176.375 229.267C175.518 229.631 174.763 229.983 174.163 230.72C173.215 231.886 172.863 233.43 173.003 234.907C173.099 235.917 173.647 237.115 174.456 237.732C175.138 238.252 176.034 238.519 176.884 238.398C179.157 238.076 180.189 236.81 181.458 235.057C182.518 232.85 183.48 230.089 185.536 228.601C186.628 227.81 188.076 227.624 189.375 227.847C190.675 228.071 191.699 227.905 192.997 227.701C192.697 229.78 192.673 231.99 192.588 234.091C192.545 235.158 192.442 236.638 192.866 237.632C193.055 238.074 193.208 238.074 193.625 238.213C195.629 237.16 196.012 234.578 197.202 232.82C197.555 232.299 197.623 232.146 198.25 232.023C198.403 232.283 198.469 232.295 198.434 232.61C198.07 235.916 196.462 238.581 193.905 240.659C192.482 240.402 191.395 239.111 190.512 238.07C189.619 238.844 188.67 239.722 187.625 240.286C187.091 240.574 186.6 240.468 186.036 240.301C184.25 239.772 183.453 238.649 182.584 237.106C181.43 238.098 180.206 239.234 178.875 239.979C177.665 240.657 176.147 240.556 174.866 240.178C173.027 239.637 172.351 238.643 171.47 237.034C170.687 237.909 169.603 239.447 168.595 240.002C167.94 240.362 167.126 240.458 166.431 240.185C165.424 239.789 164.741 238.24 164.333 237.329C163.279 238.209 162.555 239.858 161.165 240.232C160.684 240.361 159.401 240.372 158.967 240.126C157.869 239.504 157.009 238.388 156.67 237.172C156.05 234.955 157.134 232.399 158.192 230.5C157.943 229.792 157.494 229.686 156.875 229.325C156.675 229.385 156.453 229.395 156.276 229.506C155.808 229.798 154.912 233.054 154.615 233.763C153.526 236.357 151.479 238.802 148.875 239.984C147.27 240.713 145.244 240.636 143.625 240.023C142.062 239.432 140.876 238.289 140.069 236.833C138.657 234.282 139.521 231.509 141.49 229.586C142.163 228.928 143.018 228.533 143.298 227.625C142.327 226.788 141.573 225.78 141.301 224.5C141.021 223.185 141.136 221.573 141.896 220.437C142.95 218.864 144.385 218.416 146.157 218.055Z"/>
	<path fill="#C05D5C" transform="matrix(2.26184 0 0 2.26301 0 -3.05176e-05)" d="M187.612 229.875C188.558 229.663 189.388 229.834 190.258 230.224C190.65 230.904 190.629 231.476 190.572 232.25C190.394 234.685 189.715 236.542 187.875 238.158C187.102 238.283 186.858 238.212 186.116 237.939C185.425 237.685 185.158 237.567 184.866 236.868C184.303 235.523 184.484 234.077 184.991 232.75C185.533 231.334 186.21 230.5 187.612 229.875Z"/>
	<path fill="#FBFBFC" transform="matrix(2.26184 0 0 2.26301 0 -3.05176e-05)" d="M196.934 181.211C196.326 182.112 195.868 182.913 194.832 183.359C193.72 183.516 192.188 183.06 191.311 182.347C190.563 181.739 189.875 180.952 189.783 179.959C189.642 178.44 189.959 177.073 190.996 175.927C191.868 174.964 193.098 174.489 194.371 174.449C195.921 174.401 197.218 174.619 198.385 175.728C199.502 176.79 200.046 177.82 200.062 179.375C200.071 180.253 200.024 181.174 199.709 182L200.125 182.232C204.582 180.899 210.441 179.468 214.786 181.755C215.589 182.178 216.31 182.757 217.018 183.321C221.316 181.461 226.497 179.29 231.194 181.198C233.539 182.151 235.697 183.917 236.661 186.31C237.447 188.26 237.451 190.725 236.625 192.654C235.728 194.748 233.768 196.811 231.609 197.62C229.543 198.395 227.576 198.046 225.632 197.119C224.254 196.461 223.211 195.285 222.683 193.861C222.275 192.76 222.417 190.836 222.953 189.78C223.464 188.774 224.318 187.931 225.421 187.612C226.299 187.358 227.756 187.342 228.562 187.824C229.403 188.327 229.941 189.073 230.144 190L229.75 190.51C227.922 190.369 226.939 188.373 225.145 190.058C224.566 190.602 224.222 191.486 224.223 192.277C224.225 193.254 224.905 194.152 225.618 194.761C226.868 195.829 228.446 196.178 230.066 196.006C231.666 195.836 233.282 194.488 234.223 193.25C235.324 191.799 235.773 190.265 235.521 188.449C235.26 186.575 233.609 184.82 232.125 183.769C229.684 182.041 226.546 182.241 223.737 182.756C221.937 183.086 220.187 183.838 218.48 184.476C219.552 187.871 220.295 190.92 218.589 194.294C217.596 196.258 215.722 197.844 213.623 198.485C212.044 198.967 210.066 198.998 208.587 198.205C207.638 197.696 206.743 196.819 206.479 195.75C206.226 194.725 206.277 193.441 206.868 192.533C207.397 191.722 208.101 191.197 209.063 191.042C210.084 190.878 210.912 191.134 211.683 191.823C211.903 192.02 212.028 192.251 212.172 192.504L212.125 193.195L211.75 193.457C210.727 193.267 209.744 192.842 208.72 193.125C208.317 193.884 208.159 194.6 208.405 195.463C208.582 196.086 209.179 196.523 209.738 196.79C210.762 197.279 212.434 196.953 213.445 196.539C215.306 195.777 216.527 194.353 217.227 192.494C218.151 190.039 217.647 187.926 216.569 185.645C207.689 189.588 196.69 193.099 186.946 190.999C186.046 190.805 185.275 190.499 184.739 189.75L184.875 189.002C185.919 188.285 187.295 188.004 188.498 187.635C191.987 186.565 195.043 184.721 197.391 181.919L196.934 181.211Z"/>
	<path fill="#C05D5C" transform="matrix(2.26184 0 0 2.26301 0 -3.05176e-05)" d="M196.934 181.211L197.003 180.955C197.205 180.184 197.273 179.63 197.125 178.828L196.625 178.205L196 178.262C195.488 179.165 195.389 180.419 194.625 181.042C193.71 181.244 193.222 181.081 192.375 180.759C191.761 179.959 191.549 179.302 191.734 178.263C191.856 177.579 192.452 176.806 193.062 176.482C193.73 176.128 195.202 176.122 195.901 176.411C196.562 176.684 197.72 177.778 197.96 178.456L198.057 178.875L198.115 179.11C198.339 180.117 197.865 181.055 197.391 181.919L196.934 181.211Z"/>
	<path fill="#C05D5C" transform="matrix(2.26184 0 0 2.26301 0 -3.05176e-05)" d="M207.42 182.582C209.221 182.39 211.431 182.346 213.125 183.053C213.734 183.307 214.312 183.615 214.569 184.25C213.909 185.077 211.878 185.505 210.829 185.848C206.321 187.324 201.862 188.563 197.191 189.415C194.459 189.989 191.527 189.764 188.761 189.558C191.667 188.554 194.304 186.982 197.089 185.712C200.405 184.201 203.805 183.082 207.42 182.582Z"/>
	<path fill="#FBFBFC" transform="matrix(2.26184 0 0 2.26301 0 -3.05176e-05)" d="M150.849 181.365C153.225 184.372 155.867 185.984 159.394 187.36C160.582 187.824 161.912 188.132 163.033 188.72C163.639 189.038 163.834 189.084 164.047 189.75C163.82 190.18 163.608 190.335 163.175 190.522C161.107 191.416 158.714 191.528 156.489 191.563C148.05 191.698 141.122 189.164 133.375 186.257C132.784 186.035 132.534 185.862 131.947 186.125C131.706 186.516 131.465 186.933 131.328 187.375C130.719 189.355 130.999 192.199 132.036 194.01C132.837 195.409 134.438 196.497 136 196.87C137.093 197.13 138.407 197.166 139.375 196.534C139.991 196.132 140.395 195.782 140.449 195C140.5 194.262 140.268 193.646 139.769 193.125C138.725 192.979 138.345 193.203 137.375 193.573C136.775 193.364 136.816 193.287 136.531 192.75C136.736 192.136 136.754 191.843 137.317 191.473C138.039 191 138.901 190.997 139.72 191.138C140.691 191.306 141.102 191.549 141.667 192.363C142.353 193.35 142.486 194.709 142.227 195.875C142.004 196.876 140.828 197.84 139.965 198.346C138.568 199.165 136.541 198.956 135.076 198.485C132.713 197.725 131.138 196.393 130.027 194.153C128.415 190.905 129.103 187.969 130.165 184.706C127.294 183.022 124.19 182.445 120.91 182.5C118.493 182.54 116.66 183.335 114.984 185.103C113.718 186.439 113.128 188.029 113.233 189.875C113.344 191.817 114.604 193.776 116.073 194.991C117.181 195.907 118.716 196.2 120.119 196.052C121.672 195.888 123.103 195.127 124.044 193.875C124.637 193.086 124.549 192.413 124.432 191.5C123.915 190.459 122.869 189.875 121.946 189.225L119.125 190.757L118.704 190.517L118.56 189.875C118.831 189.008 119.283 188.305 120.138 187.88C121.108 187.397 122.488 187.389 123.475 187.796L123.764 187.925C124.734 188.347 125.645 189.337 126.043 190.335C126.422 191.286 126.365 192.892 126.001 193.843C125.402 195.412 124.019 196.797 122.5 197.486C120.99 198.171 118.758 198.287 117.208 197.696C115.048 196.873 112.908 194.859 112.018 192.714C111.276 190.925 111.199 188.099 111.928 186.307C112.84 184.064 115.125 182.161 117.351 181.3C122.219 179.417 126.909 181.22 131.36 183.234L134.233 181.681C138.836 179.467 144.37 180.827 148.967 182.396C148.867 180.975 148.521 179.554 148.775 178.125C148.998 176.867 150.004 175.843 151.051 175.193C152.405 174.352 153.869 174.194 155.404 174.586C156.598 174.89 157.773 175.745 158.342 176.863C158.872 177.906 158.932 179.797 158.477 180.875C158.077 181.821 157.002 182.721 156.047 183.086C155.284 183.377 154.279 183.425 153.535 183.068C152.387 182.517 151.953 181.88 151.526 180.733L151.415 180.427L150.849 181.365Z"/>
	<path fill="#C05D5C" transform="matrix(2.26184 0 0 2.26301 0 -3.05176e-05)" d="M150.849 181.365C150.509 180.028 150.482 179.19 150.842 177.875C151.388 177.158 151.845 176.746 152.705 176.449C153.591 176.144 154.611 176.119 155.449 176.574C156.186 176.974 156.775 177.54 156.969 178.375C157.145 179.13 157.048 179.845 156.625 180.492C155.733 181.043 155.464 181.188 154.375 181.217C154.151 180.994 153.67 180.634 153.528 180.375C153.15 179.684 153.256 179.039 152.707 178.303L152.06 178.322C151.526 178.903 151.49 179.401 151.434 180.149L151.415 180.427L150.849 181.365Z"/>
	<path fill="#C05D5C" transform="matrix(2.26184 0 0 2.26301 0 -3.05176e-05)" d="M137.417 182.549C141.662 182.386 145.578 183.19 149.499 184.815C152.938 186.24 156.085 188.125 159.613 189.397L156.076 189.776C151.581 189.8 147.187 188.651 142.871 187.49C139.754 186.653 136.365 185.758 133.553 184.146L133.585 184.003C134.872 183.313 135.981 182.831 137.417 182.549Z"/>
	<path fill="#FBFBFC" transform="matrix(2.26184 0 0 2.26301 0 -3.05176e-05)" d="M88.394 89.4324C94.521 89.3674 104.352 88.4398 109 93.0997C111.488 95.5943 112.301 98.9884 112.294 102.4C112.286 106.493 111.19 108.6 108.311 111.456C102.817 116.112 95.2383 115.214 88.4601 115.221L88.394 89.4324Z"/>
	<path fill="#C05D5C" transform="matrix(2.26184 0 0 2.26301 0 -3.05176e-05)" d="M97.8518 90.8374C101.483 91.1589 104.829 91.3585 107.617 93.9944C109.727 95.9897 110.712 98.7205 110.763 101.576C110.83 105.359 109.954 107.676 107.311 110.417C104.467 112.924 101.55 113.55 97.8811 113.83L97.8518 90.8374Z"/>
</svg>